<svg width="407" height="125" viewBox="0 0 407 125" fill="none" xmlns="http://www.w3.org/2000/svg">
<path d="M276.098 107.4V0H389.348V24.3H314.048V42.3H383.348V63.15H314.048V83.1H390.848V107.4H276.098Z" fill="#0DA4E8"/>
<path d="M118.895 107.4L170.795 51.3L119.495 0H159.545L192.845 33.75L227.045 0H267.845L215.345 50.85L268.445 107.4H227.495L193.295 69.45L159.095 107.4H118.895Z" fill="#0DA4E8"/>
<path d="M1 107.4V0H114.25V24.3H38.95V42.3H108.25V63.15H38.95V83.1H115.75V107.4H1Z" fill="#0DA4E8"/>
<g filter="url(#filter0_d_218_121)">
<path d="M292.098 115.4V8H405.348V32.3H330.048V50.3H399.348V71.15H330.048V91.1H406.848V115.4H292.098Z" fill="white"/>
</g>
<g filter="url(#filter1_d_218_121)">
<path d="M134.895 115.4L186.795 59.3L135.495 8H175.545L208.845 41.75L243.045 8H283.845L231.345 58.85L284.445 115.4H243.495L209.295 77.45L175.095 115.4H134.895Z" fill="white"/>
</g>
<g filter="url(#filter2_d_218_121)">
<path d="M17 115.4V8H130.25V32.3H54.95V50.3H124.25V71.15H54.95V91.1H131.75V115.4H17Z" fill="white"/>
</g>
<defs>
<filter id="filter0_d_218_121" x="275.898" y="4.8" width="130.95" height="119.8" filterUnits="userSpaceOnUse" color-interpolation-filters="sRGB">
<feFlood flood-opacity="0" result="BackgroundImageFix"/>
<feColorMatrix in="SourceAlpha" type="matrix" values="0 0 0 0 0 0 0 0 0 0 0 0 0 0 0 0 0 0 127 0" result="hardAlpha"/>
<feOffset dx="-10" dy="3"/>
<feGaussianBlur stdDeviation="3.1"/>
<feComposite in2="hardAlpha" operator="out"/>
<feColorMatrix type="matrix" values="0 0 0 0 0 0 0 0 0 0 0 0 0 0 0 0 0 0 0.39 0"/>
<feBlend mode="normal" in2="BackgroundImageFix" result="effect1_dropShadow_218_121"/>
<feBlend mode="normal" in="SourceGraphic" in2="effect1_dropShadow_218_121" result="shape"/>
</filter>
<filter id="filter1_d_218_121" x="118.695" y="4.8" width="165.751" height="119.8" filterUnits="userSpaceOnUse" color-interpolation-filters="sRGB">
<feFlood flood-opacity="0" result="BackgroundImageFix"/>
<feColorMatrix in="SourceAlpha" type="matrix" values="0 0 0 0 0 0 0 0 0 0 0 0 0 0 0 0 0 0 127 0" result="hardAlpha"/>
<feOffset dx="-10" dy="3"/>
<feGaussianBlur stdDeviation="3.1"/>
<feComposite in2="hardAlpha" operator="out"/>
<feColorMatrix type="matrix" values="0 0 0 0 0 0 0 0 0 0 0 0 0 0 0 0 0 0 0.39 0"/>
<feBlend mode="normal" in2="BackgroundImageFix" result="effect1_dropShadow_218_121"/>
<feBlend mode="normal" in="SourceGraphic" in2="effect1_dropShadow_218_121" result="shape"/>
</filter>
<filter id="filter2_d_218_121" x="0.8" y="4.8" width="130.95" height="119.8" filterUnits="userSpaceOnUse" color-interpolation-filters="sRGB">
<feFlood flood-opacity="0" result="BackgroundImageFix"/>
<feColorMatrix in="SourceAlpha" type="matrix" values="0 0 0 0 0 0 0 0 0 0 0 0 0 0 0 0 0 0 127 0" result="hardAlpha"/>
<feOffset dx="-10" dy="3"/>
<feGaussianBlur stdDeviation="3.1"/>
<feComposite in2="hardAlpha" operator="out"/>
<feColorMatrix type="matrix" values="0 0 0 0 0 0 0 0 0 0 0 0 0 0 0 0 0 0 0.39 0"/>
<feBlend mode="normal" in2="BackgroundImageFix" result="effect1_dropShadow_218_121"/>
<feBlend mode="normal" in="SourceGraphic" in2="effect1_dropShadow_218_121" result="shape"/>
</filter>
</defs>
</svg>
